<svg width="45" height="45" viewBox="0 0 45 45" fill="none" xmlns="http://www.w3.org/2000/svg">
<path d="M44.5 22.5C44.5 34.6503 34.6503 44.5 22.5 44.5C10.3497 44.5 0.5 34.6503 0.5 22.5C0.5 10.3497 10.3497 0.5 22.5 0.5C34.6503 0.5 44.5 10.3497 44.5 22.5Z" fill="#E6F9EA" stroke="#1FB881" stroke-miterlimit="10"/>
<path d="M12.9805 23.25C14.6373 23.25 15.9805 21.5711 15.9805 19.5C15.9805 17.4289 14.6373 15.75 12.9805 15.75C11.3236 15.75 9.98047 17.4289 9.98047 19.5C9.98047 21.5711 11.3236 23.25 12.9805 23.25Z" fill="#1FB881"/>
<path d="M31.918 23.25C33.5748 23.25 34.918 21.5711 34.918 19.5C34.918 17.4289 33.5748 15.75 31.918 15.75C30.2611 15.75 28.918 17.4289 28.918 19.5C28.918 21.5711 30.2611 23.25 31.918 23.25Z" fill="#1FB881"/>
<path fill-rule="evenodd" clip-rule="evenodd" d="M15.6078 27.6018C17.9008 27.3529 20.2018 27.2246 22.5033 27.2246C24.8047 27.2246 27.1057 27.3529 29.3987 27.6018L29.4031 27.6023C29.9909 27.673 30.5203 27.9572 30.8616 28.3847C31.2083 28.8189 31.3537 29.3956 31.1634 29.9998C30.6102 31.7491 29.4094 33.6546 27.8821 35.1251C26.3591 36.5914 24.4612 37.6721 22.5033 37.6721C20.5454 37.6721 18.6457 36.5915 17.1217 35.1251C15.5935 33.6547 14.3925 31.7493 13.843 29.9995L13.8423 29.9972C13.6568 29.3933 13.8047 28.8178 14.1505 28.3847C14.4913 27.9579 15.0184 27.6732 15.6031 27.6023L15.6078 27.6018ZM15.6912 28.3472C15.2869 28.3967 14.9449 28.5918 14.7366 28.8526C14.5333 29.1074 14.4524 29.4277 14.5589 29.776C15.0671 31.3933 16.1947 33.1924 17.6417 34.5847C19.0933 35.9814 20.8161 36.9221 22.5033 36.9221C24.1903 36.9221 25.9112 35.9815 27.3619 34.5848C28.8083 33.1922 29.9364 31.3923 30.4482 29.7742C30.5577 29.426 30.4782 29.1065 30.2755 28.8526C30.0678 28.5925 29.7243 28.3969 29.3155 28.3472C27.0493 28.1012 24.7761 27.9746 22.5033 27.9746C20.2305 27.9746 17.9574 28.1012 15.6912 28.3472Z" fill="#1FB881"/>
<path fill-rule="evenodd" clip-rule="evenodd" d="M34.2713 14.9355C34.0992 15.0508 33.8663 15.0048 33.751 14.8327L34.0625 14.624C33.751 14.8327 33.751 14.8327 33.751 14.8327L33.75 14.8313L33.7434 14.8217C33.7372 14.8127 33.7273 14.7988 33.7139 14.7805C33.6873 14.7439 33.6469 14.6903 33.5944 14.6253C33.489 14.4949 33.3369 14.3217 33.1503 14.1497C32.7638 13.7935 32.2907 13.499 31.8125 13.499C31.3344 13.499 30.8613 13.7935 30.4748 14.1497C30.2882 14.3217 30.1361 14.4949 30.0307 14.6253C29.9782 14.6903 29.9378 14.7439 29.9112 14.7805C29.8978 14.7988 29.8879 14.8127 29.8817 14.8217L29.8751 14.8313L29.8741 14.8327C29.7588 15.0046 29.5258 15.0508 29.3538 14.9355C29.1818 14.8202 29.1357 14.5873 29.251 14.4153L29.5626 14.624C29.251 14.4153 29.251 14.4153 29.251 14.4153L29.2517 14.4143L29.2527 14.4128L29.2559 14.4081L29.2666 14.3926C29.2757 14.3796 29.2886 14.3613 29.3052 14.3386C29.3383 14.2931 29.3862 14.2296 29.4474 14.1539C29.5693 14.0031 29.7463 13.8012 29.9665 13.5982C30.3938 13.2045 31.0457 12.749 31.8125 12.749C32.5794 12.749 33.2313 13.2045 33.6586 13.5982C33.8788 13.8012 34.0558 14.0031 34.1777 14.1539C34.2389 14.2296 34.2868 14.2931 34.3199 14.3386C34.3365 14.3613 34.3494 14.3796 34.3585 14.3926L34.3692 14.4081L34.3724 14.4128L34.3734 14.4143L34.374 14.4151C34.374 14.4151 34.3741 14.4153 34.0625 14.624L34.374 14.4151C34.4892 14.5871 34.4433 14.8202 34.2713 14.9355Z" fill="#1FB881"/>
<path fill-rule="evenodd" clip-rule="evenodd" d="M15.5838 14.9355C15.4117 15.0508 15.1788 15.0048 15.0635 14.8327L15.375 14.624C15.0635 14.8327 15.0635 14.8327 15.0635 14.8327L15.0625 14.8313L15.0559 14.8217C15.0497 14.8127 15.0398 14.7988 15.0264 14.7805C14.9998 14.7439 14.9594 14.6903 14.9069 14.6253C14.8015 14.4949 14.6494 14.3217 14.4628 14.1497C14.0763 13.7935 13.6032 13.499 13.125 13.499C12.6469 13.499 12.1738 13.7935 11.7873 14.1497C11.6007 14.3217 11.4486 14.4949 11.3432 14.6253C11.2907 14.6903 11.2503 14.7439 11.2236 14.7805C11.2103 14.7988 11.2004 14.8127 11.1942 14.8217L11.1876 14.8313L11.1866 14.8327C11.0713 15.0046 10.8383 15.0508 10.6663 14.9355C10.4943 14.8202 10.4482 14.5873 10.5635 14.4153L10.875 14.624C10.5635 14.4153 10.5635 14.4153 10.5635 14.4153L10.5642 14.4143L10.5652 14.4128L10.5684 14.4081L10.5791 14.3926C10.5882 14.3796 10.6011 14.3613 10.6177 14.3386C10.6508 14.2931 10.6987 14.2296 10.7599 14.1539C10.8818 14.0031 11.0588 13.8012 11.279 13.5982C11.7063 13.2045 12.3582 12.749 13.125 12.749C13.8919 12.749 14.5438 13.2045 14.9711 13.5982C15.1913 13.8012 15.3683 14.0031 15.4902 14.1539C15.5514 14.2296 15.5993 14.2931 15.6324 14.3386C15.649 14.3613 15.6619 14.3796 15.671 14.3926L15.6817 14.4081L15.6849 14.4128L15.6859 14.4143L15.6865 14.4151C15.6865 14.4151 15.6866 14.4153 15.375 14.624L15.6865 14.4151C15.8017 14.5871 15.7558 14.8202 15.5838 14.9355Z" fill="#1FB881"/>
</svg>
