<svg width="123" height="156" viewBox="0 0 123 156" fill="none" xmlns="http://www.w3.org/2000/svg">
<path d="M10.832 119.953H9.80664V129.072H10.832V119.953ZM0.550781 126.488L1.15234 127.322C2.31445 126.755 3.16895 125.682 3.59961 124.472C4.0166 125.572 4.81641 126.509 5.9375 127.021L6.53906 126.174C4.99414 125.518 4.10547 124.055 4.10547 122.633V120.814H3.06641V122.633C3.07324 124.068 2.11621 125.75 0.550781 126.488ZM2.86133 131.848H11.2012V130.945H3.92773V127.951H2.86133V131.848ZM5.48633 123.932H7.40039V128.73H8.43945V120.199H7.40039V123.043H5.48633V123.932ZM22.6855 119.953H21.6191V124.547H19.0488V125.436H21.6191V132.135H22.6855V119.953ZM13.1699 129.195H14.0996C16.4512 129.195 17.9346 129.113 19.7051 128.826L19.582 127.938C17.9141 128.238 16.4785 128.3 14.25 128.307V125.367H18.3105V124.492H14.25V121.963H18.8438V121.074H13.1699V129.195ZM38.2578 119.967H37.1914V127.445H38.2578V119.967ZM28.8379 121.635H33.3223V123.221H28.8652V126.693H29.8496C32.0918 126.687 33.7529 126.632 35.7969 126.297L35.6738 125.408C33.6982 125.729 32.0781 125.791 29.9043 125.791V124.068H34.3887V120.732H28.8379V121.635ZM30.123 129.893C30.1162 131.28 31.668 132.08 34.2246 132.08C36.7812 132.08 38.3398 131.28 38.3398 129.893C38.3398 128.498 36.7812 127.691 34.2246 127.691C31.668 127.691 30.1162 128.498 30.123 129.893ZM31.1758 129.893C31.1826 129.059 32.3311 128.553 34.2246 128.553C36.1113 128.553 37.2666 129.059 37.2598 129.893C37.2666 130.727 36.1113 131.226 34.2246 131.219C32.3311 131.226 31.1826 130.727 31.1758 129.893ZM50.0156 121.197H41.6621V122.1H48.9766V122.701C48.9766 123.323 48.9697 123.945 48.9492 124.588L41.334 124.902L41.4844 125.791L48.9014 125.388C48.833 126.331 48.7031 127.343 48.4297 128.512L49.5098 128.607C50.0225 126.146 50.0225 124.492 50.0156 122.701V121.197ZM40.3223 130.398H51.3965V129.496H40.3223V130.398ZM61.8281 119.953H60.7617V132.107H61.8281V125.805H63.7969V124.902H61.8281V119.953ZM52.5039 128.949L53.1055 129.797C57.0635 127.842 58.6768 124.704 58.6836 121.266H53.0645V122.168H57.5967C57.3506 125.046 55.6416 127.391 52.5039 128.949ZM70.4551 127.09H69.4434V131.943H73.668V127.09H72.6699V128.607H70.4551V127.09ZM68.2266 123.289C68.2197 124.957 69.5322 126.092 71.3848 126.092C73.0322 126.092 74.2832 125.148 74.4951 123.713H77.0312V126.393H78.1113V119.953H77.0312V122.824H74.4883C74.2559 121.423 73.0186 120.5 71.3848 120.5C69.5322 120.5 68.2197 121.628 68.2266 123.289ZM69.252 123.289C69.252 122.182 70.1338 121.402 71.3848 121.402C72.6084 121.402 73.4902 122.182 73.4902 123.289C73.4902 124.403 72.6084 125.196 71.3848 125.203C70.1338 125.196 69.252 124.403 69.252 123.289ZM70.4551 131.096V129.428H72.6699V131.096H70.4551ZM73.832 131.219L74.3926 132.039C75.4658 131.581 76.2109 130.72 76.5938 129.729C76.9697 130.733 77.7012 131.595 78.8223 132.039L79.3828 131.219C77.8994 130.672 77.127 129.325 77.1406 128.047V127.008H76.0742V128.047C76.0674 129.277 75.2949 130.61 73.832 131.219ZM82.6094 127.254H81.543V131.943H89.7598V127.254H88.6797V128.676H82.6094V127.254ZM80.1348 126.393H91.209V125.504H80.1348V126.393ZM80.7637 123.781L81.1738 124.643C83.0469 124.362 84.9062 123.412 85.6787 122.045C86.4512 123.405 88.3037 124.362 90.1836 124.643L90.5801 123.781C88.4404 123.508 86.2256 122.161 86.2324 120.664V120.09H85.125V120.664C85.125 122.209 82.9307 123.487 80.7637 123.781ZM82.6094 131.082V129.523H88.6797V131.082H82.6094ZM102.256 119.953H101.189V132.107H102.256V119.953ZM93.0273 128.977H94.0117C95.96 128.977 97.8809 128.826 100.041 128.375L99.8906 127.459C97.8535 127.89 95.9395 128.033 94.0801 128.047V121.156H93.0273V128.977ZM113.74 119.953H112.674V132.135H113.74V125.668H115.777V124.766H113.74V119.953ZM104.867 129.086H105.824C108.135 129.086 109.728 129.018 111.635 128.676L111.498 127.746C109.687 128.081 108.135 128.177 105.934 128.184V122.031H110.541V121.143H104.867V129.086ZM117.719 131.082C118.204 131.075 118.601 130.679 118.594 130.193C118.601 129.715 118.204 129.318 117.719 129.318C117.24 129.318 116.83 129.715 116.844 130.193C116.83 130.679 117.24 131.075 117.719 131.082ZM12.6641 143.686V142.1H15.5625V141.211H8.71289V142.1H11.584V143.686C11.5771 145.791 10.0596 148.088 8.31641 148.922L8.95898 149.77C10.3467 149.072 11.5771 147.527 12.1445 145.743C12.7119 147.425 13.9355 148.826 15.3574 149.469L15.959 148.621C14.168 147.849 12.6709 145.75 12.6641 143.686ZM17.2578 152.107H18.3379V139.953H17.2578V152.107ZM30.082 140.609H21.8242V141.498H29.0156V141.512C29.0225 142.455 29.0225 143.549 28.6807 145.08H20.416V145.969H31.5449V145.08H29.7607C30.082 143.562 30.082 142.455 30.082 141.512V140.609ZM21.7832 151.943H30.1367V147.65H21.7832V151.943ZM22.8496 151.068V148.498H29.0703V151.068H22.8496ZM47.1035 147.309H36.0293V148.211H41.0332V152.135H42.0859V148.211H47.1035V147.309ZM36.7266 145.504L37.123 146.365C39.0029 146.078 40.8008 145.148 41.5732 143.815C42.3457 145.135 44.1162 146.078 45.9961 146.365L46.3926 145.504C44.2188 145.21 42.0996 143.877 42.0996 142.359V142.346H46.0371V141.471H42.0859V139.953H41.0332V141.471H37.1094V142.346H41.0332V142.359C41.0264 143.884 38.8936 145.21 36.7266 145.504ZM57.5352 139.953H56.4688V152.107H57.5352V145.805H59.5039V144.902H57.5352V139.953ZM48.2109 148.949L48.8125 149.797C52.7705 147.842 54.3838 144.704 54.3906 141.266H48.7715V142.168H53.3037C53.0576 145.046 51.3486 147.391 48.2109 148.949ZM66.2988 142.059H63.7969V140.322H62.7305V142.059H60.2012V142.934H66.2988V142.059ZM60.6387 146.516C60.6387 148.149 61.7393 149.298 63.25 149.305C64.7812 149.298 65.875 148.149 65.8887 146.516C65.875 144.902 64.7812 143.761 63.25 143.754C61.7393 143.761 60.6387 144.902 60.6387 146.516ZM61.5957 146.516C61.5957 145.449 62.2861 144.67 63.25 144.656C64.2207 144.67 64.9316 145.449 64.9316 146.516C64.9316 147.596 64.2207 148.368 63.25 148.361C62.2861 148.368 61.5957 147.596 61.5957 146.516ZM66.9277 151.506H67.9395V145.969H69.5527V152.107H70.5781V139.953H69.5527V145.08H67.9395V140.254H66.9277V151.506ZM86.9707 149.66H81.8984V147.035H85.6035V140.814H84.5508V143.016H78.2344V140.814H77.1543V147.035H80.8457V149.66H75.8418V150.549H86.9707V149.66ZM78.2344 146.16V143.891H84.5508V146.16H78.2344ZM91.5508 143.412V141.102H90.5117V143.453C90.5117 145.538 89.4863 147.691 87.8047 148.676L88.4883 149.482C89.7051 148.744 90.6074 147.35 91.0518 145.729C91.4756 147.213 92.3164 148.512 93.4922 149.223L94.1074 148.389C92.4941 147.432 91.5508 145.347 91.5508 143.412ZM92.7676 145.23H94.832V151.492H95.8438V140.213H94.832V144.314H92.7676V145.23ZM97.3203 152.107H98.3594V139.953H97.3203V152.107ZM111.17 149.646H108.408V146.338C109.413 145.798 110.021 144.937 110.021 143.85C110.021 141.97 108.176 140.732 105.578 140.719C102.98 140.732 101.135 141.97 101.135 143.85C101.135 144.957 101.764 145.832 102.803 146.372V149.646H100.041V150.549H111.17V149.646ZM102.174 143.85C102.167 142.489 103.582 141.594 105.578 141.607C107.554 141.594 108.982 142.489 108.982 143.85C108.982 145.21 107.554 146.119 105.578 146.119C103.582 146.119 102.167 145.21 102.174 143.85ZM103.855 149.646V146.762C104.375 146.898 104.956 146.967 105.578 146.967C106.214 146.967 106.802 146.892 107.328 146.755V149.646H103.855ZM113.426 151.082C113.911 151.075 114.308 150.679 114.301 150.193C114.308 149.715 113.911 149.318 113.426 149.318C112.947 149.318 112.537 149.715 112.551 150.193C112.537 150.679 112.947 151.075 113.426 151.082Z" fill="#939292"/>
<g clip-path="url(#clip0_914_10459)">
<path fill-rule="evenodd" clip-rule="evenodd" d="M110.963 51.9272L111.962 51.9659C111.987 51.3137 112 50.6583 112 50C112 49.3417 111.987 48.6863 111.962 48.0341L110.963 48.0728L109.964 48.1114C109.988 48.7378 110 49.3674 110 50C110 50.6326 109.988 51.2622 109.964 51.8886L110.963 51.9272ZM110.665 44.2359L111.658 44.1195C111.505 42.8109 111.301 41.5177 111.048 40.2419L110.067 40.436L109.086 40.63C109.329 41.8545 109.524 43.0959 109.671 44.3522L110.665 44.2359ZM109.172 36.6934L110.134 36.4224C109.778 35.157 109.373 33.9119 108.922 32.6894L107.984 33.0356L107.046 33.3818C107.479 34.5551 107.867 35.75 108.209 36.9644L109.172 36.6934ZM105.633 25.5648C106.272 26.7036 106.868 27.87 107.418 29.0616L106.51 29.4809L105.602 29.9001C105.074 28.7563 104.502 27.6368 103.889 26.5437L104.761 26.0543L105.633 25.5648ZM102.747 22.7755L103.578 22.2192C102.849 21.1299 102.078 20.0709 101.268 19.0443L100.483 19.6639L99.6979 20.2836C100.476 21.2692 101.216 22.286 101.916 23.3319L102.747 22.7755ZM97.9823 16.7389L98.7164 16.06C97.8275 15.0987 96.9013 14.1725 95.94 13.2836L95.2611 14.0177L94.5821 14.7519C95.5051 15.6055 96.3945 16.4949 97.2481 17.4179L97.9823 16.7389ZM92.3361 11.5172L92.9557 10.7323C91.9291 9.92195 90.8701 9.151 89.7808 8.42173L89.2245 9.2527L88.6681 10.0837C89.714 10.7838 90.7308 11.524 91.7164 12.3021L92.3361 11.5172ZM85.9457 7.23931L86.4352 6.36726C85.2964 5.72815 84.13 5.13234 82.9384 4.58204L82.5191 5.48992L82.0999 6.39779C83.2437 6.92596 84.3632 7.49786 85.4563 8.11136L85.9457 7.23931ZM78.9644 4.01587L79.3106 3.07772C78.0881 2.62652 76.843 2.22175 75.5776 1.86553L75.3066 2.82811L75.0356 3.7907C76.25 4.13256 77.4449 4.52101 78.6182 4.95402L78.9644 4.01587ZM71.564 1.93269L71.7581 0.951702C70.4823 0.699318 69.1891 0.495467 67.8805 0.342151L67.7641 1.33536L67.6478 2.32857C68.9041 2.47576 70.1455 2.67144 71.37 2.91368L71.564 1.93269ZM63.9272 1.03719L63.9659 0.037938C63.3137 0.0127235 62.6583 0 62 0C61.3417 0 60.6863 0.0127236 60.0341 0.0379384L60.0728 1.03719L60.1114 2.03645C60.7378 2.01223 61.3674 2 62 2C62.6326 2 63.2622 2.01223 63.8886 2.03644L63.9272 1.03719ZM56.2359 1.33536L56.1195 0.342152C54.8109 0.495468 53.5177 0.699319 52.2419 0.951702L52.436 1.93269L52.63 2.91368C53.8545 2.67144 55.0959 2.47576 56.3522 2.32857L56.2359 1.33536ZM48.6934 2.82811L48.4224 1.86553C47.157 2.22175 45.9119 2.62653 44.6894 3.07772L45.0356 4.01587L45.3818 4.95402C46.5551 4.52101 47.75 4.13256 48.9644 3.7907L48.6934 2.82811ZM41.4809 5.48992L41.0616 4.58204C39.87 5.13234 38.7036 5.72815 37.5648 6.36726L38.0543 7.23931L38.5437 8.11136C39.6368 7.49786 40.7563 6.92596 41.9001 6.39779L41.4809 5.48992ZM34.7755 9.25269L34.2192 8.42173C33.1299 9.151 32.0709 9.92195 31.0443 10.7323L31.6639 11.5172L32.2836 12.3021C33.2692 11.524 34.286 10.7838 35.3319 10.0837L34.7755 9.25269ZM28.7389 14.0177L28.06 13.2836C27.0987 14.1725 26.1725 15.0987 25.2836 16.06L26.0177 16.7389L26.7519 17.4179C27.6055 16.4949 28.4949 15.6055 29.4179 14.7519L28.7389 14.0177ZM23.5172 19.6639L22.7323 19.0443C21.922 20.0709 21.151 21.1299 20.4217 22.2192L21.2527 22.7755L22.0837 23.3319C22.7838 22.286 23.524 21.2692 24.3021 20.2836L23.5172 19.6639ZM19.2393 26.0543L18.3673 25.5648C17.7282 26.7036 17.1323 27.87 16.582 29.0616L17.4899 29.4809L18.3978 29.9001C18.926 28.7563 19.4979 27.6368 20.1114 26.5437L19.2393 26.0543ZM16.0159 33.0356L15.0777 32.6894C14.6265 33.9119 14.2217 35.157 13.8655 36.4224L14.8281 36.6934L15.7907 36.9644C16.1326 35.75 16.521 34.5551 16.954 33.3818L16.0159 33.0356ZM13.9327 40.436L12.9517 40.2419C12.6993 41.5177 12.4955 42.8109 12.3422 44.1195L13.3354 44.2359L14.3286 44.3522C14.4758 43.0959 14.6714 41.8545 14.9137 40.63L13.9327 40.436ZM12 50C12 49.3417 12.0127 48.6863 12.0379 48.0341L13.0372 48.0728L14.0364 48.1114C14.0122 48.7378 14 49.3674 14 50C14 50.6326 14.0122 51.2622 14.0364 51.8886L13.0372 51.9272L12.0379 51.9659C12.0127 51.3137 12 50.6583 12 50ZM13.3354 55.7641L12.3422 55.8805C12.4955 57.1891 12.6993 58.4823 12.9517 59.7581L13.9327 59.564L14.9137 59.37C14.6714 58.1455 14.4758 56.9041 14.3286 55.6478L13.3354 55.7641ZM14.8281 63.3066L13.8655 63.5776C14.2217 64.843 14.6265 66.0881 15.0777 67.3106L16.0159 66.9644L16.954 66.6182C16.521 65.4449 16.1326 64.25 15.7907 63.0356L14.8281 63.3066ZM17.4899 70.5191L16.582 70.9384C17.1323 72.13 17.7282 73.2964 18.3673 74.4352L19.2393 73.9457L20.1114 73.4563C19.4979 72.3632 18.926 71.2437 18.3978 70.0999L17.4899 70.5191ZM21.2527 77.2245L20.4217 77.7808C21.151 78.8701 21.9219 79.9291 22.7323 80.9557L23.5172 80.3361L24.3021 79.7164C23.524 78.7308 22.7838 77.714 22.0837 76.6681L21.2527 77.2245ZM26.0177 83.2611L25.2836 83.94C26.1725 84.9013 27.0987 85.8275 28.06 86.7164L28.7389 85.9823L29.4179 85.2481C28.4949 84.3945 27.6055 83.5051 26.7519 82.5821L26.0177 83.2611ZM31.6639 88.4828L31.0443 89.2677C32.0709 90.078 33.1299 90.849 34.2192 91.5783L34.7755 90.7473L35.3319 89.9163C34.286 89.2162 33.2692 88.476 32.2836 87.6979L31.6639 88.4828ZM38.0543 92.7607L37.5648 93.6327C38.7036 94.2719 39.87 94.8677 41.0616 95.418L41.4809 94.5101L41.9001 93.6022C40.7563 93.074 39.6368 92.5021 38.5437 91.8886L38.0543 92.7607ZM45.0356 95.9841L44.6894 96.9223C45.9119 97.3735 47.157 97.7783 48.4224 98.1345L48.6934 97.1719L48.9644 96.2093C47.75 95.8674 46.5551 95.479 45.3818 95.046L45.0356 95.9841ZM56.1195 99.6579C54.8109 99.5045 53.5177 99.3007 52.2419 99.0483L52.436 98.0673L52.63 97.0863C53.8545 97.3286 55.0959 97.5242 56.3522 97.6714L56.2359 98.6646L56.1195 99.6579ZM60.0728 98.9628L60.0341 99.9621C60.6863 99.9873 61.3417 100 62 100C62.6583 100 63.3137 99.9873 63.9659 99.9621L63.9272 98.9628L63.8886 97.9636C63.2622 97.9878 62.6326 98 62 98C61.3674 98 60.7378 97.9878 60.1114 97.9636L60.0728 98.9628ZM67.7641 98.6646L67.8805 99.6578C69.1891 99.5045 70.4823 99.3007 71.7581 99.0483L71.564 98.0673L71.37 97.0863C70.1455 97.3286 68.9041 97.5242 67.6478 97.6714L67.7641 98.6646ZM75.3066 97.1719L75.5776 98.1345C76.843 97.7782 78.0881 97.3735 79.3106 96.9223L78.9644 95.9841L78.6182 95.046C77.4449 95.479 76.25 95.8674 75.0356 96.2093L75.3066 97.1719ZM82.5191 94.5101L82.9384 95.418C84.13 94.8677 85.2964 94.2719 86.4352 93.6327L85.9457 92.7607L85.4563 91.8886C84.3632 92.5021 83.2437 93.074 82.0999 93.6022L82.5191 94.5101ZM89.2245 90.7473L89.7808 91.5783C90.8701 90.849 91.9291 90.078 92.9557 89.2677L92.3361 88.4828L91.7164 87.6979C90.7308 88.476 89.714 89.2162 88.6681 89.9163L89.2245 90.7473ZM95.2611 85.9823L95.94 86.7164C96.9013 85.8275 97.8275 84.9013 98.7164 83.94L97.9823 83.2611L97.2481 82.5821C96.3945 83.5051 95.5051 84.3945 94.5821 85.2481L95.2611 85.9823ZM100.483 80.3361L101.268 80.9557C102.078 79.9291 102.849 78.8701 103.578 77.7808L102.747 77.2245L101.916 76.6681C101.216 77.714 100.476 78.7308 99.6979 79.7164L100.483 80.3361ZM104.761 73.9457L105.633 74.4352C106.272 73.2964 106.868 72.13 107.418 70.9384L106.51 70.5191L105.602 70.0999C105.074 71.2437 104.502 72.3632 103.889 73.4563L104.761 73.9457ZM107.984 66.9644L108.922 67.3106C109.373 66.0881 109.778 64.843 110.134 63.5776L109.172 63.3066L108.209 63.0356C107.867 64.25 107.479 65.4449 107.046 66.6182L107.984 66.9644ZM111.658 55.8805C111.505 57.1891 111.301 58.4823 111.048 59.7581L110.067 59.564L109.086 59.37C109.329 58.1455 109.524 56.9041 109.671 55.6478L110.665 55.7641L111.658 55.8805ZM73.7513 47.8208L78.8214 42.9583C81.4485 40.4388 81.5357 36.2666 79.0161 33.6394C76.4966 31.0123 72.3243 30.9251 69.6972 33.4447L60.5116 42.2542C57.8845 44.7738 57.7973 48.946 60.3169 51.5731C61.3153 52.6142 62.5733 53.2565 63.8919 53.4956C63.866 53.5219 63.8396 53.548 63.8127 53.5737L58.8213 58.3608C57.7018 57.7437 56.6555 56.9491 55.7241 55.9779C50.7718 50.8142 50.9432 42.6137 56.1068 37.6614L65.2924 28.8519C70.4561 23.8996 78.6567 24.071 83.6089 29.2347C88.5612 34.3983 88.3898 42.5989 83.2262 47.5512L74.0405 56.3607C73.3656 57.008 72.6387 57.5678 71.874 58.0404C73.929 55.006 74.5614 51.2824 73.7513 47.8208ZM50.1618 52.1792L45.0917 57.0417C42.4646 59.5612 42.3774 63.7335 44.8969 66.3606C47.4165 68.9877 51.5887 69.0749 54.2159 66.5553L63.4015 57.7458C66.0286 55.2262 66.1158 51.054 63.5962 48.4269C62.5978 47.3858 61.3397 46.7436 60.0212 46.5044C60.0471 46.4781 60.0735 46.452 60.1004 46.4263L65.0918 41.6392C66.2113 42.2563 67.2576 43.0509 68.189 44.0221C73.1413 49.1858 72.9699 57.3863 67.8062 62.3386L58.6206 71.1481C53.457 76.1004 45.2564 75.929 40.3041 70.7654C35.3519 65.6017 35.5233 57.4011 40.6869 52.4489L49.8725 43.6393C50.5475 42.992 51.2744 42.4322 52.0391 41.9596C49.9841 44.9941 49.3517 48.7176 50.1618 52.1792Z" fill="#CFCFCF"/>
</g>
<defs>
<clipPath id="clip0_914_10459">
<rect width="100" height="100" fill="white" transform="translate(12)"/>
</clipPath>
</defs>
</svg>
