<svg width="100" height="100" viewBox="0 0 100 100" fill="none" xmlns="http://www.w3.org/2000/svg">
<g clip-path="url(#clip0_34_9826)">
<circle cx="50" cy="50" r="49" stroke="#CFCFCF" stroke-width="2" stroke-dasharray="4 4"/>
<path fill-rule="evenodd" clip-rule="evenodd" d="M22 38C19.7909 38 18 39.7909 18 42V61C18 63.2091 19.7909 65 22 65H78C80.2091 65 82 63.2091 82 61V42C82 39.7909 80.2091 38 78 38H22ZM25.5 50C24.6716 50 24 50.6716 24 51.5C24 52.3284 24.6716 53 25.5 53H52.5C53.3284 53 54 52.3284 54 51.5C54 50.6716 53.3284 50 52.5 50H25.5ZM24 58.5C24 57.6716 24.6716 57 25.5 57H52.5C53.3284 57 54 57.6716 54 58.5C54 59.3284 53.3284 60 52.5 60H25.5C24.6716 60 24 59.3284 24 58.5ZM25.5 43C24.6716 43 24 43.6716 24 44.5C24 45.3284 24.6716 46 25.5 46H44.5C45.3284 46 46 45.3284 46 44.5C46 43.6716 45.3284 43 44.5 43H25.5Z" fill="#CFCFCF"/>
</g>
<defs>
<clipPath id="clip0_34_9826">
<rect width="100" height="100" fill="white"/>
</clipPath>
</defs>
</svg>
