<svg width="62" height="22" viewBox="0 0 62 22" fill="none" xmlns="http://www.w3.org/2000/svg">
<path d="M41.3502 0C41.1831 0 41.0474 0.148623 41.0474 0.331958V6.07505L43.171 3.75134V0.331958C43.171 0.148622 43.0342 0 42.8672 0H41.3502Z" fill="#2D62EA"/>
<path d="M50.7114 6.06613H61.8318C61.9249 6.06613 62 6.14845 62 6.24999V8.32887C62 8.43041 61.9249 8.51273 61.8318 8.51273H57.5005V21.8115C57.5005 21.9131 57.4253 21.9954 57.3323 21.9954H55.193C55.0999 21.9954 55.0237 21.9131 55.0237 21.8115V8.51273H50.7136C50.6194 8.51273 50.5443 8.43052 50.5443 8.32905L50.5421 6.25017C50.5421 6.14856 50.6172 6.06613 50.7114 6.06613Z" fill="#2D62EA"/>
<path fill-rule="evenodd" clip-rule="evenodd" d="M0 6.25329C0 6.15175 0.0762442 6.06944 0.169307 6.06944H6.24418C7.24768 6.06944 8.06843 6.2312 8.70193 6.54983C9.33655 6.87091 9.82429 7.27288 10.1685 7.75328C10.5127 8.23368 10.7459 8.76064 10.8726 9.32927C10.9971 9.89791 11.061 10.4224 11.061 10.9053C11.061 11.3881 10.9993 11.9077 10.8726 12.4715C10.7459 13.0327 10.5127 13.5548 10.1685 14.0377C9.82429 14.5181 9.33655 14.9176 8.70193 15.2313C8.06619 15.545 7.24768 15.7019 6.24418 15.7019H2.47682V21.8142C2.47682 21.9157 2.40169 21.998 2.30863 21.998H0.169307C0.0762442 21.998 0 21.9157 0 21.8142V6.25329ZM2.47682 13.469H6.10626C6.38433 13.469 6.668 13.4249 6.95953 13.3367C7.24993 13.2484 7.51566 13.1063 7.76233 12.9102C8.00676 12.7141 8.2041 12.4494 8.35771 12.1234C8.50796 11.795 8.58644 11.3832 8.58644 10.8857C8.58644 10.3881 8.51917 9.95183 8.38911 9.61604C8.25568 9.28025 8.0774 9.01309 7.85315 8.81701C7.62891 8.62093 7.37214 8.48613 7.08062 8.4126C6.79022 8.33907 6.47964 8.3023 6.14887 8.3023H2.47682V13.469Z" fill="#2D62EA"/>
<path fill-rule="evenodd" clip-rule="evenodd" d="M15.787 22C14.9831 22 14.2666 21.8617 13.6376 21.5852C13.0075 21.3087 12.476 20.9279 12.0432 20.4406C11.6071 19.9556 11.2785 19.3754 11.052 18.6999C10.8256 18.0245 10.7123 17.2833 10.7123 16.4742C10.7123 15.665 10.8256 14.942 11.052 14.2689C11.2785 13.5934 11.6093 13.0132 12.0432 12.5282C12.476 12.0431 13.0075 11.6623 13.6376 11.3836C14.2666 11.107 14.9831 10.9688 15.787 10.9688C16.5898 10.9688 17.3063 11.107 17.9365 11.3836C18.5655 11.6601 19.0969 12.0409 19.5297 12.5282C19.9636 13.0132 20.2944 13.5934 20.5209 14.2689C20.7474 14.9443 20.8606 15.6786 20.8606 16.4742C20.8606 17.2697 20.7474 18.0268 20.5209 18.6999C20.2944 19.3754 19.9636 19.9556 19.5297 20.4406C19.0947 20.9257 18.5632 21.3087 17.9365 21.5852C17.3086 21.8617 16.5898 22 15.787 22ZM15.787 20.1777C16.2793 20.1777 16.7076 20.0689 17.0697 19.8536C17.433 19.6383 17.7313 19.355 17.9645 19.0036C18.1977 18.6523 18.3692 18.258 18.4803 17.8205C18.589 17.3831 18.6462 16.9343 18.6462 16.4742C18.6462 16.0141 18.5913 15.5834 18.4803 15.1392C18.3692 14.695 18.1999 14.2983 17.9645 13.9561C17.7313 13.6116 17.433 13.3328 17.0697 13.1152C16.7053 12.8999 16.2793 12.7911 15.787 12.7911C15.2948 12.7911 14.8654 12.8999 14.5043 13.1152C14.1399 13.3305 13.8417 13.6116 13.6085 13.9561C13.3753 14.3006 13.2037 14.695 13.0927 15.1392C12.9817 15.5834 12.9268 16.03 12.9268 16.4742C12.9268 16.9184 12.9817 17.3808 13.0927 17.8205C13.2015 18.2602 13.3741 18.6546 13.6085 19.0036C13.8417 19.355 14.1399 19.6383 14.5043 19.8536C14.8676 20.0689 15.2948 20.1777 15.787 20.1777Z" fill="#2D62EA"/>
<path d="M22.1579 10.9688C22.0648 10.9688 21.9886 11.0511 21.9886 11.1526V21.8161C21.9886 21.9177 22.0648 22 22.1579 22H24.0752C24.1683 22 24.2434 21.9177 24.2434 21.8161V11.1526C24.2434 11.0511 24.1683 10.9688 24.0752 10.9688H22.1579Z" fill="#2D62EA"/>
<path d="M28.0747 12.3461V10.8657C28.0747 10.7642 27.9984 10.6818 27.9054 10.6818H26.108C26.015 10.6818 25.9387 10.7642 25.9387 10.8657V21.8143C25.9387 21.9158 26.015 21.9981 26.108 21.9981H28.0298C28.1229 21.9981 28.198 21.9158 28.198 21.8143V15.3216C28.198 14.9147 28.2563 14.5275 28.3763 14.1623C28.494 13.7995 28.66 13.4809 28.8708 13.2113C29.0816 12.9417 29.3394 12.7284 29.6433 12.5765C29.9449 12.4221 30.2891 12.3461 30.6737 12.3461C31.3487 12.3461 31.8432 12.5471 32.1605 12.949C32.4778 13.3485 32.6493 13.9956 32.6763 14.8853V21.8143C32.6763 21.9158 32.7514 21.9981 32.8444 21.9981H34.7662C34.8593 21.9981 34.9355 21.9158 34.9355 21.8143V14.2285C34.9355 12.9441 34.6115 11.9809 33.9634 11.3387C33.3154 10.6966 32.4296 10.3755 31.3061 10.3755C30.6311 10.3755 30.0167 10.5544 29.4617 10.9122C28.9066 11.2701 28.4582 11.7627 28.1139 12.3902L28.0747 12.3461Z" fill="#2D62EA"/>
<path d="M24.2423 7.29265C24.2423 7.96958 23.7377 8.51834 23.1154 8.51834C22.492 8.51834 21.9875 7.96958 21.9875 7.29265C21.9875 6.61572 22.492 6.06696 23.1154 6.06696C23.7377 6.06696 24.2423 6.61572 24.2423 7.29265Z" fill="#2D62EA"/>
<path d="M48.4184 8.39888C48.5855 8.39888 48.7223 8.25026 48.7223 8.06692V6.40713C48.7223 6.2238 48.5855 6.07517 48.4184 6.07517H45.2935L43.1699 8.39888H48.4184Z" fill="#2D62EA"/>
<path d="M42.8672 14.4741C43.0342 14.4741 43.171 14.3255 43.171 14.1421L43.1699 8.39888L41.0474 10.7228V14.1421C41.0474 14.3255 41.1831 14.4741 41.3502 14.4741H42.8672Z" fill="#2D62EA"/>
<path d="M35.7989 6.07522C35.6307 6.07522 35.495 6.22384 35.495 6.40718V8.06697C35.495 8.2503 35.6307 8.39893 35.7989 8.39893H38.9238L41.0474 6.07505L35.7989 6.07522Z" fill="#2D62EA"/>
<path d="M41.4589 6.24131C41.3154 6.24131 41.1988 6.36871 41.1988 6.52585V7.94853C41.1988 8.10567 41.3154 8.23306 41.4589 8.23306H42.7595C42.9031 8.23306 43.0186 8.10567 43.0186 7.94853V6.52585C43.0186 6.36871 42.9031 6.24131 42.7595 6.24131H41.4589Z" fill="#2D62EA"/>
</svg>
