<svg width="62" height="45" viewBox="0 0 62 45" fill="none" xmlns="http://www.w3.org/2000/svg">
<rect x="26.9492" y="14.1953" width="34.2892" height="30.3043" rx="3.5" fill="#EBF1FF" stroke="#92B1FF"/>
<rect x="0.867188" y="0.5" width="38.8922" height="37.1522" rx="3.5" fill="#EBF1FF" stroke="#6691FF"/>
<path d="M26.5941 18.6731C26.8655 18.8729 26.8655 19.2785 26.5941 19.4784L18.3488 25.5487C18.0187 25.7918 17.5524 25.5561 17.5524 25.1461L17.5524 13.0053C17.5524 12.5953 18.0187 12.3596 18.3488 12.6027L26.5941 18.6731Z" fill="#EBF1FF" stroke="#6691FF" stroke-linejoin="round"/>
<path d="M57.4029 25.4345C57.4029 27.4395 56.1465 28.8476 54.8343 28.8476C53.522 28.8476 52.2656 27.4395 52.2656 25.4345C52.2656 23.4295 53.522 22.0215 54.8343 22.0215C56.1465 22.0215 57.4029 23.4295 57.4029 25.4345Z" stroke="#92B1FF"/>
<path d="M41.7943 34.8264L43.9679 37.1743L49.4019 31.3047L54.8359 37.1743" stroke="#92B1FF"/>
</svg>
