<svg width="45" height="45" viewBox="0 0 45 45" fill="none" xmlns="http://www.w3.org/2000/svg">
<g clip-path="url(#clip0_45_12189)">
<rect width="45" height="45" fill="white"/>
<path d="M14.3353 30.5524L14.2192 31.0656C14.3954 31.1223 14.582 31.0563 14.6965 30.8968C14.8109 30.7372 14.8322 30.5136 14.7509 30.3247L14.3353 30.5524ZM4.58908 31L4.94577 31.3505L4.96434 31.3255L4.97999 31.2979L4.58908 31ZM5.64798 33.8082L5.54149 34.3244L5.58227 34.3364L5.62411 34.3399L5.64798 33.8082ZM11.0519 34.9882L11.2736 34.5254L11.2639 34.5191L11.2539 34.5133L11.0519 34.9882ZM19.0293 36.9292L19.06 36.398L19.0236 36.3943L18.9873 36.3972L19.0293 36.9292ZM24.3819 37.4709L24.3512 38.0021L24.3875 38.0057L24.4238 38.0029L24.3819 37.4709ZM28.7239 39.3778L28.473 39.8201L28.7239 39.3778ZM7.77417 21.7494L7.42416 22.091L7.44838 22.1235L7.47667 22.1513L7.77417 21.7494ZM2.67696 13.7963L2.32019 13.4459L2.28357 13.4953L2.2587 13.5538L2.67696 13.7963ZM6.40266 15.5859L6.10517 15.9878L6.11887 16.0013L6.13341 16.0135L6.40266 15.5859ZM10.5926 19.1116L10.8901 18.7097L10.8764 18.6962L10.8619 18.684L10.5926 19.1116ZM13.5747 20.2722L13.9315 20.6226L14.1153 20.3742L14.0004 20.0695L13.5747 20.2722ZM12.3716 16.2449L12.788 16.0191C12.7777 15.9949 12.7658 15.9716 12.7525 15.9494L12.3716 16.2449ZM9.79783 11.949L10.1787 11.6535L10.1589 11.6203L10.135 11.5908L9.79783 11.949ZM7.8312 4.71297L8.04198 5.19334L8.07517 5.17478L8.10524 5.15032L7.8312 4.71297ZM10.254 7.09248L9.86992 7.38264L9.88089 7.40143L9.89318 7.41913L10.254 7.09248ZM15.3512 15.0456L14.9709 15.3422L14.976 15.3505L15.3512 15.0456ZM16.8153 15.8941L17.1721 16.2445L17.2977 16.0748L17.2773 15.8505L16.8153 15.8941ZM16.4531 11.9007L16.9151 11.8571L16.9107 11.8081L16.8986 11.7607L16.4531 11.9007ZM15.6464 8.75082L16.0918 8.61082L16.0815 8.57071L16.066 8.53277L15.6464 8.75082ZM13.7404 1.67569L13.3837 1.3252L13.3836 1.3253L13.7404 1.67569ZM16.3666 2.63496L16.7732 2.38741L16.7628 2.36553L16.7507 2.3448L16.3666 2.63496ZM20.0898 12.7765L19.6377 12.8877L19.6407 12.9022L19.6443 12.9165L20.0898 12.7765ZM21.0775 13.9105L21.0724 13.3774L21.0775 13.9105ZM20.8071 9.79494L20.3617 9.93495L20.3617 9.93498L20.8071 9.79494ZM20.8599 3.36346L20.9019 3.89543L20.9275 3.8934L20.9527 3.88814L20.8599 3.36346ZM22.9726 7.57866L22.5205 7.68989L22.5256 7.71487L22.5328 7.73922L22.9726 7.57866ZM25.5008 16.1729L25.061 16.3335L25.0673 16.3549L25.0751 16.3756L25.5008 16.1729ZM28.7703 22.8191L28.3447 23.0218L28.3579 23.0569L28.3753 23.0895L28.7703 22.8191ZM31.1485 28.7925L30.7031 28.9324L30.7703 29.1947L30.9935 29.2911L31.1485 28.7925ZM12.5768 10.4384L12.9571 10.1418L12.9478 10.1264L12.9376 10.1118L12.5768 10.4384ZM14.4514 30.0391C13.0896 29.6015 10.9588 29.0979 8.98137 29.0125C7.99358 28.9699 7.02056 29.0303 6.19258 29.2701C5.37032 29.5082 4.62974 29.9416 4.19817 30.7022L4.97999 31.2979C5.23565 30.8473 5.72246 30.5117 6.43834 30.3045C7.14849 30.0988 8.02437 30.0375 8.96682 30.0782C10.8499 30.1595 12.9049 30.6433 14.2192 31.0656L14.4514 30.0391ZM4.23239 30.6495C3.94316 31.04 3.59806 31.7386 3.69708 32.4992C3.80735 33.3461 4.41776 33.9923 5.54149 34.3244L5.75447 33.292C4.81813 33.0153 4.64639 32.5986 4.61588 32.3643C4.57412 32.0435 4.7296 31.6424 4.94577 31.3505L4.23239 30.6495ZM5.62411 34.3399C6.2694 34.3943 7.31353 34.518 8.33786 34.7114C9.38205 34.9085 10.3374 35.1662 10.8499 35.4632L11.2539 34.5133C10.5955 34.1318 9.50563 33.8548 8.46893 33.6592C7.41238 33.4598 6.33999 33.3327 5.67184 33.2764L5.62411 34.3399ZM10.8302 35.4511C12.0683 36.254 15.4042 37.7505 19.0713 37.4611L18.9873 36.3972C15.5441 36.6689 12.3912 35.2501 11.2736 34.5254L10.8302 35.4511ZM18.9986 37.4603L24.3512 38.0021L24.4126 36.9398L19.06 36.398L18.9986 37.4603ZM24.4238 38.0029C24.8444 37.9697 26.3878 38.2315 28.473 39.8201L28.9749 38.9355C26.7791 37.2627 25.0303 36.8845 24.3399 36.9389L24.4238 38.0029ZM28.473 39.8201L36.4998 45.9353L37.0016 45.0507L28.9749 38.9355L28.473 39.8201ZM14.7509 30.3247C13.6864 27.8515 11.4314 24.6471 8.07167 21.3474L7.47667 22.1513C10.7798 25.3954 12.9326 28.4868 13.9197 30.7801L14.7509 30.3247ZM8.12418 21.4077C7.61681 20.7277 6.96195 20.0501 6.30634 19.3923C5.64077 18.7245 4.97449 18.0769 4.40071 17.426C3.82441 16.7722 3.38164 16.1585 3.1441 15.5794C2.9156 15.0223 2.88703 14.5279 3.09522 14.0387L2.2587 13.5538C1.90081 14.3947 1.9853 15.2365 2.30509 16.0161C2.61582 16.7737 3.15655 17.4974 3.75503 18.1763C4.35603 18.8581 5.05581 19.5385 5.70365 20.1885C6.36146 20.8485 6.96735 21.4788 7.42416 22.091L8.12418 21.4077ZM3.03373 14.1467C3.12328 14.0257 3.17827 13.9795 3.22662 13.9585C3.2656 13.9415 3.35453 13.9172 3.552 13.9846C3.98361 14.1321 4.74185 14.6489 6.10517 15.9878L6.70016 15.184C5.33763 13.8458 4.44353 13.1833 3.79902 12.9631C3.45842 12.8467 3.15333 12.8414 2.88019 12.9604C2.61641 13.0754 2.44116 13.2824 2.32019 13.4459L3.03373 14.1467ZM6.13341 16.0135L10.3234 19.5392L10.8619 18.684L6.67192 15.1583L6.13341 16.0135ZM10.2951 19.5135C10.6511 19.8631 11.3467 20.3169 11.9951 20.6143C12.3217 20.7642 12.6672 20.8888 12.9747 20.9338C13.1284 20.9563 13.2941 20.9622 13.4527 20.9272C13.6127 20.8919 13.7945 20.8077 13.9315 20.6226L13.2179 19.9218C13.2538 19.8733 13.2856 19.8737 13.258 19.8798C13.229 19.8862 13.1696 19.8902 13.0721 19.876C12.8773 19.8475 12.616 19.7594 12.3234 19.6252C11.7332 19.3545 11.1399 18.955 10.8901 18.7097L10.2951 19.5135ZM14.0004 20.0695C13.9918 20.0468 13.9874 20.0321 13.9852 20.0237C13.9831 20.0158 13.9828 20.0126 13.9828 20.0126C13.9827 20.0124 13.9827 20.012 13.9827 20.0114C13.9826 20.0108 13.9825 20.0093 13.9825 20.0065C13.9825 20.0003 13.9826 19.9902 13.9837 19.9691C13.9891 19.8664 14.0054 19.6917 13.9634 19.4034C13.8865 18.8746 13.6158 17.961 12.788 16.0191L11.9552 16.4707C12.7819 18.41 12.995 19.1981 13.0471 19.5565C13.0697 19.7119 13.0618 19.7773 13.0563 19.8818C13.053 19.9447 13.0496 20.0361 13.0637 20.1457C13.078 20.2562 13.1069 20.3632 13.149 20.475L14.0004 20.0695ZM12.7525 15.9494L10.1787 11.6535L9.41693 12.2445L11.9907 16.5405L12.7525 15.9494ZM10.135 11.5908C9.37801 10.6552 8.3887 9.19487 7.85271 7.84965C7.58284 7.17234 7.45205 6.5831 7.48067 6.12983C7.50653 5.72031 7.65954 5.40715 8.04198 5.19334L7.62043 4.2326C6.93208 4.61744 6.60205 5.26897 6.55403 6.02953C6.50877 6.74634 6.71326 7.53257 7.00926 8.27545C7.60501 9.77064 8.6698 11.3297 9.46068 12.3072L10.135 11.5908ZM8.10524 5.15032C8.11371 5.14344 8.11107 5.1417 8.13155 5.14639C8.17278 5.15583 8.27023 5.19796 8.43434 5.35086C8.76492 5.65886 9.22831 6.28415 9.86992 7.38264L10.6381 6.80231C9.9878 5.68897 9.45865 4.94653 9.01023 4.52874C8.78485 4.31875 8.54618 4.15848 8.29396 4.10073C8.02099 4.03823 7.76755 4.10452 7.55716 4.27561L8.10524 5.15032ZM14.976 15.3505C15.1523 15.6319 15.4552 16.0368 15.7949 16.3038C15.9629 16.4359 16.1823 16.5682 16.4278 16.5946C16.704 16.6242 16.9727 16.5139 17.1721 16.2445L16.4585 15.5437C16.4505 15.5545 16.4537 15.5466 16.4702 15.5391C16.4863 15.5318 16.497 15.5331 16.4941 15.5328C16.4772 15.531 16.4157 15.5127 16.3082 15.4282C16.0968 15.262 15.8698 14.9697 15.7264 14.7407L14.976 15.3505ZM17.2773 15.8505L16.9151 11.8571L15.9911 11.9444L16.3533 15.9378L17.2773 15.8505ZM16.8986 11.7607L16.0918 8.61082L15.2009 8.89081L16.0077 12.0407L16.8986 11.7607ZM16.066 8.53277C15.6497 7.51597 14.9886 6.0621 14.5191 4.69715C14.2852 4.01708 14.1121 3.39471 14.0424 2.89216C13.9679 2.35475 14.0339 2.11159 14.0972 2.02609L13.3836 1.3253C13.0427 1.78586 13.044 2.45367 13.1249 3.03717C13.2107 3.65554 13.4132 4.36402 13.656 5.06977C14.1398 6.47646 14.8358 8.0141 15.2267 8.96886L16.066 8.53277ZM14.0971 2.02618C14.2773 1.78293 14.4841 1.62741 14.7057 1.64467C14.9269 1.66188 15.3645 1.86699 15.9825 2.92511L16.7507 2.3448C16.0769 1.19122 15.4121 0.632352 14.7483 0.580684C14.0851 0.52906 13.6247 0.999755 13.3837 1.3252L14.0971 2.02618ZM15.96 2.8825C16.5625 4.14912 17.3953 6.22218 18.1251 8.20754C18.8594 10.2054 19.4668 12.0539 19.6377 12.8877L20.5418 12.6652C20.3498 11.728 19.7095 9.7963 18.9799 7.81144C18.2457 5.81405 17.3984 3.70183 16.7732 2.38741L15.96 2.8825ZM19.6443 12.9165C19.741 13.294 19.9644 13.6535 20.192 13.9131C20.3092 14.0467 20.4414 14.1699 20.5798 14.2634C20.71 14.3514 20.8868 14.4413 21.0826 14.4437L21.0724 13.3774C21.1104 13.3778 21.1017 13.3905 21.0381 13.3476C20.9827 13.3101 20.9129 13.2485 20.8394 13.1647C20.6857 12.9894 20.573 12.7839 20.5352 12.6365L19.6443 12.9165ZM21.0826 14.4437C21.4348 14.4482 21.5738 14.1046 21.6079 14.0064C21.6573 13.8644 21.6798 13.6998 21.6919 13.552C21.717 13.2448 21.7086 12.8428 21.6788 12.4142C21.619 11.5529 21.4653 10.4853 21.2526 9.65491L20.3617 9.93498C20.5525 10.6797 20.6969 11.672 20.7527 12.4757C20.7808 12.8797 20.7847 13.2114 20.7669 13.4294C20.7626 13.4821 20.7574 13.523 20.7522 13.5531C20.7468 13.5847 20.7429 13.5957 20.7439 13.5925C20.7447 13.5903 20.7482 13.5805 20.7558 13.5659C20.7633 13.5516 20.7774 13.5276 20.8006 13.501C20.8519 13.4422 20.9455 13.3758 21.0724 13.3774L21.0826 14.4437ZM21.2526 9.65494C20.9885 8.62393 20.6779 7.08288 20.5951 5.80328C20.5533 5.15618 20.5735 4.62692 20.6608 4.27307C20.7477 3.92055 20.8502 3.8995 20.9019 3.89543L20.818 2.8315C20.203 2.88002 19.8984 3.42669 19.7664 3.96182C19.6348 4.49561 19.6243 5.17389 19.6686 5.85901C19.7582 7.24386 20.0879 8.86596 20.3617 9.93495L21.2526 9.65494ZM20.9527 3.88814C21.0793 3.86172 21.1574 3.87956 21.2241 3.92045C21.3015 3.96793 21.416 4.07949 21.5576 4.34744C21.8488 4.89826 22.1574 5.91816 22.5205 7.68989L23.4246 7.46742C23.0619 5.69722 22.7267 4.52343 22.3491 3.80908C22.1564 3.44445 21.9304 3.15556 21.6478 2.98226C21.3544 2.80237 21.053 2.77911 20.7671 2.83878L20.9527 3.88814ZM22.5328 7.73922L25.061 16.3335L25.9406 16.0123L23.4124 7.41809L22.5328 7.73922ZM25.0751 16.3756C25.3273 17.0443 25.9947 18.2851 26.6513 19.5306C27.327 20.8125 28.0072 22.127 28.3447 23.0218L29.196 22.6164C28.8273 21.6387 28.108 20.2543 27.4433 18.9933C26.7594 17.6959 26.1451 16.5498 25.9265 15.9702L25.0751 16.3756ZM28.3753 23.0895C29.0222 24.3062 30.0747 26.4789 30.7031 28.9324L31.594 28.6525C30.9316 26.0662 29.8305 23.7994 29.1654 22.5486L28.3753 23.0895ZM30.9935 29.2911L41.6972 33.9096L42.0073 32.9124L31.3036 28.2938L30.9935 29.2911ZM9.89318 7.41913L12.216 10.7651L12.9376 10.1118L10.6148 6.76582L9.89318 7.41913ZM12.1965 10.735L14.971 15.3422L15.7315 14.749L12.9571 10.1418L12.1965 10.735Z" fill="#1FB881"/>
<path d="M5.30816 33.8024C5.2761 33.6101 5.51537 33.3233 5.60414 33.1911C5.74553 32.9806 5.90289 32.703 6.10368 32.5604C6.40552 32.346 6.85283 32.1308 7.21848 32.2389C7.67285 32.3731 8.04923 32.658 8.3135 33.0992C8.36607 33.1869 8.47302 33.5546 8.45606 33.6635C8.4481 33.7147 8.48179 33.7951 8.47531 33.8587C8.46721 33.9382 8.44202 34.051 8.41233 34.1208" stroke="#1FB881" stroke-linecap="round"/>
<path opacity="0.3" d="M37.6487 31.591C42.3567 25.2299 41.5975 15.5787 35.953 10.0344C30.3085 4.49016 21.9162 5.15234 17.2082 11.5134C12.5002 17.8746 13.2594 27.5258 18.9039 33.07C24.5484 38.6143 32.9407 37.9521 37.6487 31.591Z" fill="#C3FFB9"/>
<path opacity="0.5" d="M34.025 28.4348C36.9606 24.4685 36.4872 18.4509 32.9678 14.9939C29.4483 11.537 24.2156 11.9499 21.2801 15.9161C18.3445 19.8824 18.8179 25.9001 22.3373 29.357C25.8568 32.8139 31.0895 32.401 34.025 28.4348Z" fill="#85F089"/>
<path opacity="0.5" d="M30.9953 25.4548C32.5329 23.3773 32.285 20.2251 30.4414 18.4144C28.5979 16.6036 25.857 16.8199 24.3193 18.8974C22.7817 20.975 23.0296 24.1271 24.8731 25.9379C26.7166 27.7487 29.4576 27.5324 30.9953 25.4548Z" fill="#4FF071"/>
</g>
<defs>
<clipPath id="clip0_45_12189">
<rect width="45" height="45" fill="white"/>
</clipPath>
</defs>
</svg>
