<svg width="45" height="45" viewBox="0 0 45 45" fill="none" xmlns="http://www.w3.org/2000/svg">
<path d="M24.4276 1.875V4.56809L24.1919 8.29559C24.1598 8.78309 23.9241 9.25559 23.5169 9.65309L18.4812 14.5281C18.2134 14.7906 18.0098 15.0906 17.6562 15.5256L17.5276 15.9006C17.2919 16.5906 17.2491 17.3106 17.5384 17.9931C17.5812 18.1056 17.6455 18.2181 17.7098 18.3231L17.8169 18.4956C18.4384 19.5081 19.7241 20.2431 21.2669 20.4681L21.8669 20.5581C22.2634 20.6181 22.6598 20.5956 23.0455 20.5056L28.1884 19.2681C29.0348 19.0656 29.9562 19.0881 30.7812 19.3431L35.0134 20.6331C35.2705 20.7081 35.5384 20.7681 35.8169 20.8056L37.6812 21.0381C38.3455 21.1206 39.0312 21.0681 39.6526 20.8881L39.7919 20.8506C41.0991 20.4756 42.1276 19.7406 42.6312 18.8181L42.6634 18.7506C43.0812 17.9856 43.1026 17.1381 42.7169 16.3656L42.1705 15.2781C42.0848 15.1131 41.9776 14.9556 41.8598 14.8056L37.5312 9.78059C37.1669 9.35309 36.9848 8.86559 37.0169 8.37059L37.2526 4.65059L37.6812 1.875" stroke="#1FB881" stroke-miterlimit="10"/>
<path d="M35.2632 42.765L35.4239 40.5666L35.6596 36.8391C35.6917 36.3516 35.9274 35.8791 36.3346 35.4816L41.3703 30.6066C41.6382 30.3441 41.8417 30.0441 42.1953 29.6091L42.3239 29.2341C42.5596 28.5441 42.6024 27.8241 42.3132 27.1416C42.2703 27.0291 42.206 26.9166 42.1417 26.8116L42.0346 26.6391C41.4132 25.6266 40.1274 24.8916 38.5846 24.6666L37.9846 24.5766C37.5882 24.5166 37.1917 24.5391 36.806 24.6291L31.6632 25.8666C30.8167 26.0691 29.8953 26.0466 29.0703 25.7916L24.8382 24.5016C24.581 24.4266 24.3132 24.3666 24.0346 24.3291L22.1703 24.0966C21.506 24.0141 20.8203 24.0666 20.1989 24.2466L20.0596 24.2841C18.7524 24.6591 17.7239 25.3941 17.2203 26.3166L17.1882 26.3841C16.7703 27.1491 16.7489 27.9966 17.1346 28.7691L17.681 29.8566C17.7667 30.0216 17.8739 30.1791 17.9917 30.3291L22.3203 35.3541C22.6846 35.7816 22.8667 36.2691 22.8346 36.7641L22.5989 40.4841L22.8346 42.375" stroke="#1FB881" stroke-miterlimit="10"/>
<path opacity="0.5" d="M21.6015 33.4133C31.5662 33.4133 39.6443 27.7587 39.6443 20.7833C39.6443 13.808 31.5662 8.15332 21.6015 8.15332C11.6367 8.15332 3.55859 13.808 3.55859 20.7833C3.55859 27.7587 11.6367 33.4133 21.6015 33.4133Z" fill="#E6F9EA"/>
<path d="M9.00904 15.2846L2.73047 10.8896" stroke="#1FB881" stroke-linecap="round" stroke-linejoin="round"/>
<path d="M9.00904 24.3896L2.73047 28.7771" stroke="#1FB881" stroke-linecap="round" stroke-linejoin="round"/>
<path d="M2.14453 19.8369H9.01239" stroke="#1FB881" stroke-linecap="round" stroke-linejoin="round"/>
</svg>
