<svg width="25" height="24" viewBox="0 0 25 24" fill="none" xmlns="http://www.w3.org/2000/svg">
<path d="M12.3358 4C7.91975 4 4.34375 7.584 4.34375 12C4.34375 16.416 7.91975 20 12.3358 20C16.7598 20 20.3438 16.416 20.3438 12C20.3438 7.584 16.7598 4 12.3358 4ZM12.3438 18.4C8.80775 18.4 5.94375 15.536 5.94375 12C5.94375 8.464 8.80775 5.6 12.3438 5.6C15.8798 5.6 18.7438 8.464 18.7438 12C18.7438 15.536 15.8798 18.4 12.3438 18.4Z" fill="#AEAEAE"/>
<path d="M12.9658 13.5732H11.7988C11.8021 13.277 11.8265 13.0231 11.8721 12.8115C11.9209 12.5999 12.0007 12.4095 12.1113 12.2402C12.222 12.0677 12.3717 11.8919 12.5605 11.7129C12.7103 11.5729 12.8438 11.4411 12.9609 11.3174C13.0814 11.1904 13.1758 11.0586 13.2441 10.9219C13.3125 10.7819 13.3467 10.624 13.3467 10.4482C13.3467 10.2497 13.3141 10.0837 13.249 9.9502C13.1872 9.81673 13.0944 9.71582 12.9707 9.64746C12.8503 9.57585 12.6989 9.54004 12.5166 9.54004C12.3669 9.54004 12.2253 9.57096 12.0918 9.63281C11.9583 9.69466 11.8509 9.79069 11.7695 9.9209C11.6882 10.0479 11.6442 10.2139 11.6377 10.4189H10.3438C10.3535 9.99251 10.4544 9.6377 10.6465 9.35449C10.8385 9.06803 11.0973 8.85482 11.4229 8.71484C11.7484 8.57161 12.113 8.5 12.5166 8.5C12.9626 8.5 13.3434 8.57487 13.6592 8.72461C13.9782 8.87109 14.2207 9.08594 14.3867 9.36914C14.556 9.65234 14.6406 9.99414 14.6406 10.3945C14.6406 10.681 14.5853 10.9382 14.4746 11.166C14.3639 11.3906 14.2174 11.6006 14.0352 11.7959C13.8529 11.9912 13.6559 12.1882 13.4443 12.3867C13.2588 12.5527 13.1335 12.7301 13.0684 12.9189C13.0033 13.1077 12.9691 13.3258 12.9658 13.5732ZM11.6768 15.0918C11.6768 14.8965 11.7419 14.7337 11.8721 14.6035C12.0055 14.4733 12.1846 14.4082 12.4092 14.4082C12.6338 14.4082 12.8112 14.4733 12.9414 14.6035C13.0749 14.7337 13.1416 14.8965 13.1416 15.0918C13.1416 15.2806 13.0749 15.4401 12.9414 15.5703C12.8112 15.7005 12.6338 15.7656 12.4092 15.7656C12.1846 15.7656 12.0055 15.7005 11.8721 15.5703C11.7419 15.4401 11.6768 15.2806 11.6768 15.0918Z" fill="#AEAEAE"/>
</svg>
