<svg width="50" height="40" viewBox="0 0 50 40" fill="none" xmlns="http://www.w3.org/2000/svg">
<path d="M8.07151 5.83301C8.07151 8.39337 6.30704 10.333 4.28575 10.333C2.26447 10.333 0.5 8.39337 0.5 5.83301C0.5 3.27264 2.26447 1.33301 4.28575 1.33301C6.30704 1.33301 8.07151 3.27264 8.07151 5.83301Z" fill="#92B1FF" stroke="#6691FF"/>
<path d="M8.07151 20C8.07151 22.5604 6.30704 24.5 4.28575 24.5C2.26447 24.5 0.5 22.5604 0.5 20C0.5 17.4396 2.26447 15.5 4.28575 15.5C6.30704 15.5 8.07151 17.4396 8.07151 20Z" stroke="#6691FF"/>
<path d="M8.07151 34.167C8.07151 36.7274 6.30704 38.667 4.28575 38.667C2.26447 38.667 0.5 36.7274 0.5 34.167C0.5 31.6066 2.26447 29.667 4.28575 29.667C6.30704 29.667 8.07151 31.6066 8.07151 34.167Z" stroke="#6691FF"/>
<rect x="11.9297" y="0.5" width="37.5718" height="10.6667" rx="5.33333" fill="#EBF1FF" stroke="#6691FF"/>
<rect x="16.4297" y="3.33301" width="9.2858" height="1.66667" rx="0.833333" fill="#BFD1FF"/>
<rect x="16.4297" y="6.66699" width="18.5716" height="1.66667" rx="0.833333" fill="#BFD1FF"/>
<rect x="11.9297" y="14.667" width="37.5718" height="10.6667" rx="5.33333" stroke="#6691FF"/>
<rect x="16.4297" y="17.5" width="9.2858" height="1.66667" rx="0.833333" fill="#BFD1FF"/>
<rect x="16.4297" y="20.834" width="18.5716" height="1.66667" rx="0.833333" fill="#BFD1FF"/>
<rect x="11.9297" y="28.833" width="37.5718" height="10.6667" rx="5.33333" stroke="#6691FF"/>
<rect x="16.4297" y="31.666" width="9.2858" height="1.66667" rx="0.833333" fill="#BFD1FF"/>
<rect x="16.4297" y="35" width="18.5716" height="1.66667" rx="0.833333" fill="#BFD1FF"/>
<path d="M2.14062 5.83366L3.56921 8.33366L6.42638 4.16699" stroke="#4679FC" stroke-linecap="round" stroke-linejoin="round"/>
</svg>
