<svg width="46" height="31" viewBox="0 0 46 31" fill="none" xmlns="http://www.w3.org/2000/svg">
<rect x="0.5" y="0.5" width="37.7931" height="12" rx="6" fill="#EBF1FF" stroke="#6691FF"/>
<path d="M9.00391 6.66992H9.57812L10.0293 7.25586C10.3457 6.98047 10.5449 6.51465 10.5449 5.87891C10.5449 4.7832 9.94727 4.19141 9.17969 4.19141C8.41211 4.19141 7.81445 4.7832 7.81445 5.87891C7.81445 6.97461 8.41211 7.56641 9.17969 7.56641C9.33789 7.56641 9.49023 7.54004 9.63086 7.49023L9.00391 6.66992ZM11.0547 5.87891C11.0547 6.66992 10.7793 7.28809 10.334 7.66016L10.8848 8.39844H10.3105L9.94141 7.90039C9.70996 8.00586 9.45508 8.05859 9.17969 8.05859C8.08984 8.05859 7.30469 7.2207 7.30469 5.87891C7.30469 4.53711 8.08984 3.69922 9.17969 3.69922C10.2637 3.69922 11.0547 4.53711 11.0547 5.87891ZM11.8516 8.03516C11.6465 8.03516 11.4707 7.86523 11.4766 7.6543C11.4707 7.44922 11.6465 7.2793 11.8516 7.2793C12.0566 7.2793 12.2266 7.44922 12.2266 7.6543C12.2266 7.86523 12.0566 8.03516 11.8516 8.03516Z" fill="#6691FF"/>
<rect x="15" y="3" width="13.3005" height="2.52174" rx="1.26087" fill="#BFD1FF"/>
<rect x="15" y="7" width="17.8448" height="2" rx="1" fill="#BFD1FF"/>
<rect x="10.5" y="18.5" width="34.3942" height="11.6087" rx="5.80435" fill="#EBF1FF" stroke="#6691FF"/>
<path d="M36.0508 26.6084H35.5L37.0527 22.3662H37.6094L39.1621 26.6084H38.6055L38.1836 25.4131H36.4785L36.0508 26.6084ZM36.6367 24.9502H38.0195L37.3457 23.0518H37.3105L36.6367 24.9502ZM40.0293 26.6436C39.8242 26.6436 39.6484 26.4736 39.6543 26.2627C39.6484 26.0576 39.8242 25.8877 40.0293 25.8877C40.2344 25.8877 40.4043 26.0576 40.4043 26.2627C40.4043 26.4736 40.2344 26.6436 40.0293 26.6436Z" fill="#6691FF"/>
<rect x="15.1367" y="20.6084" width="8.97317" height="2.52174" rx="1.26087" fill="#BFD1FF"/>
<rect x="15.1367" y="24.3906" width="18.4448" height="2.52174" rx="1.26087" fill="#BFD1FF"/>
</svg>
