<svg width="113" height="100" viewBox="0 0 113 100" fill="none" xmlns="http://www.w3.org/2000/svg">
<path fill-rule="evenodd" clip-rule="evenodd" d="M0 4C0 1.79086 1.79086 0 4 0H63C65.2091 0 67 1.79086 67 4C67 6.20914 65.2091 8 63 8H4C1.79086 8 0 6.20914 0 4ZM0 27C0 24.7909 1.79086 23 4 23H109C111.209 23 113 24.7909 113 27C113 29.2091 111.209 31 109 31H4C1.79086 31 0 29.2091 0 27ZM4 46C1.79086 46 0 47.7909 0 50C0 52.2091 1.79086 54 4 54H109C111.209 54 113 52.2091 113 50C113 47.7909 111.209 46 109 46H4ZM0 73C0 70.7909 1.79086 69 4 69H109C111.209 69 113 70.7909 113 73C113 75.2091 111.209 77 109 77H4C1.79086 77 0 75.2091 0 73ZM4 92C1.79086 92 0 93.7909 0 96C0 98.2091 1.79086 100 4 100H109C111.209 100 113 98.2091 113 96C113 93.7909 111.209 92 109 92H4Z" fill="#C2C9D4"/>
</svg>
